<svg xmlns="http://www.w3.org/2000/svg" viewBox="0 0 115.52 114.99">
    <g id="dashed-circles-group-1">
        <path
            d="M57.76,19.15q-.37,0-.75,0a.36.36,0,0,1-.33-.39.37.37,0,0,1,.39-.34q.34,0,.69,0a.37.37,0,0,1,.37.36A.37.37,0,0,1,57.76,19.15Zm2-.21a.37.37,0,0,1-.36-.29.36.36,0,0,1,.28-.43l.68-.17a.36.36,0,1,1,.2.69c-.24.07-.48.14-.73.19Zm-4.81-.25H54.8c-.24-.08-.48-.17-.71-.27a.36.36,0,0,1-.2-.47.37.37,0,0,1,.48-.2L55,18a.36.36,0,0,1-.11.7Zm7.5-.8a.36.36,0,0,1-.31-.18.37.37,0,0,1,.13-.5c.2-.11.4-.24.59-.37a.36.36,0,1,1,.41.59c-.2.15-.42.28-.63.41A.41.41,0,0,1,62.41,17.89Zm-10.08-.51a.4.4,0,0,1-.21-.07c-.21-.15-.4-.31-.59-.47a.37.37,0,0,1,0-.52.36.36,0,0,1,.51,0l.55.43a.38.38,0,0,1,.08.51A.36.36,0,0,1,52.33,17.38Zm12.32-1.32a.35.35,0,0,1-.24-.1.36.36,0,0,1,0-.51,5.85,5.85,0,0,0,.45-.54.36.36,0,0,1,.58.44c-.15.2-.31.39-.48.58A.37.37,0,0,1,64.65,16.06ZM50.3,15.32a.36.36,0,0,1-.3-.15c-.14-.2-.28-.41-.41-.63a.36.36,0,1,1,.62-.37c.12.2.25.39.38.58a.37.37,0,0,1-.08.51A.39.39,0,0,1,50.3,15.32Zm15.9-1.7-.14,0a.37.37,0,0,1-.19-.48c.09-.21.18-.43.25-.65a.37.37,0,0,1,.47-.22.35.35,0,0,1,.22.46c-.08.24-.17.47-.27.7A.37.37,0,0,1,66.2,13.62ZM49,12.74a.36.36,0,0,1-.34-.25,6.05,6.05,0,0,1-.2-.73.36.36,0,0,1,.7-.16c.06.22.12.45.19.67a.35.35,0,0,1-.24.45A.2.2,0,0,1,49,12.74Zm17.94-1.92h0a.37.37,0,0,1-.33-.4c0-.23,0-.46,0-.7A.38.38,0,0,1,67,9.37a.37.37,0,0,1,.36.37c0,.25,0,.5,0,.75A.35.35,0,0,1,66.93,10.82ZM48.55,9.88h0a.36.36,0,0,1-.36-.36,6.28,6.28,0,0,1,0-.75.36.36,0,0,1,.39-.34.37.37,0,0,1,.33.4q0,.35,0,.69A.37.37,0,0,1,48.55,9.88Zm18.2-2a.36.36,0,0,1-.35-.28c-.05-.23-.11-.45-.18-.67a.37.37,0,0,1,.24-.46.36.36,0,0,1,.45.24c.08.24.14.48.2.73a.36.36,0,0,1-.28.43ZM49,7a.25.25,0,0,1-.12,0,.37.37,0,0,1-.23-.46c.08-.24.17-.47.27-.7a.36.36,0,1,1,.67.28c-.09.22-.17.43-.25.65A.36.36,0,0,1,49,7ZM65.69,5.25a.38.38,0,0,1-.32-.18c-.11-.2-.24-.4-.37-.59A.37.37,0,0,1,65.08,4a.38.38,0,0,1,.51.09c.14.21.28.42.41.64a.36.36,0,0,1-.13.49A.32.32,0,0,1,65.69,5.25ZM50.36,4.46a.36.36,0,0,1-.22-.07.35.35,0,0,1-.07-.5,6.75,6.75,0,0,1,.47-.59.35.35,0,0,1,.51,0,.36.36,0,0,1,0,.51c-.16.18-.3.36-.44.55A.37.37,0,0,1,50.36,4.46ZM63.84,3a.38.38,0,0,1-.24-.09,5.75,5.75,0,0,0-.54-.44.36.36,0,1,1,.44-.58c.2.15.39.31.58.47a.35.35,0,0,1,0,.51A.37.37,0,0,1,63.84,3ZM52.42,2.44a.38.38,0,0,1-.3-.16.36.36,0,0,1,.09-.5,6.9,6.9,0,0,1,.63-.42.37.37,0,1,1,.37.63c-.2.12-.39.24-.58.38A.4.4,0,0,1,52.42,2.44Zm9-1a.4.4,0,0,1-.15,0l-.65-.25a.35.35,0,0,1-.22-.46.35.35,0,0,1,.46-.22c.23.08.47.17.7.27a.35.35,0,0,1,.19.47A.36.36,0,0,1,61.4,1.47ZM55,1.15A.36.36,0,0,1,54.9.44c.24-.08.48-.14.73-.2a.36.36,0,0,1,.43.28.35.35,0,0,1-.27.43c-.23.05-.45.11-.67.18ZM58.59.76h0q-.35,0-.69,0a.36.36,0,0,1-.36-.37A.35.35,0,0,1,57.87,0c.26,0,.51,0,.76,0A.37.37,0,0,1,59,.43.37.37,0,0,1,58.59.76Z"
            />
        <path
            d="M96.74,37.49l-.76,0a.37.37,0,0,1-.33-.39.37.37,0,0,1,.39-.33c.23,0,.47,0,.7,0a.37.37,0,0,1,.36.37A.36.36,0,0,1,96.74,37.49Zm2-.21a.35.35,0,0,1-.35-.29.37.37,0,0,1,.27-.43c.23-.05.46-.1.68-.17a.36.36,0,0,1,.21.69,6.54,6.54,0,0,1-.73.19ZM93.88,37l-.11,0-.71-.26a.37.37,0,0,1-.19-.48.36.36,0,0,1,.47-.19l.66.24a.36.36,0,0,1-.12.71Zm7.51-.81a.33.33,0,0,1-.31-.18.35.35,0,0,1,.12-.49l.59-.38a.37.37,0,0,1,.42.6c-.21.14-.42.28-.64.4A.31.31,0,0,1,101.39,36.23Zm-10.08-.51a.36.36,0,0,1-.22-.07l-.59-.47a.36.36,0,0,1,0-.51.38.38,0,0,1,.52,0,5.66,5.66,0,0,0,.54.43.37.37,0,0,1,.08.51A.35.35,0,0,1,91.31,35.72Zm12.31-1.32a.36.36,0,0,1-.27-.61c.15-.17.3-.35.44-.54a.36.36,0,1,1,.58.44c-.15.2-.31.4-.48.59A.36.36,0,0,1,103.62,34.4Zm-14.35-.73a.38.38,0,0,1-.29-.15q-.23-.32-.42-.63a.36.36,0,0,1,.62-.38c.12.2.25.39.39.58a.37.37,0,0,1-.09.51A.38.38,0,0,1,89.27,33.67ZM105.18,32a.4.4,0,0,1-.15,0,.36.36,0,0,1-.18-.48c.09-.21.17-.43.25-.65a.36.36,0,0,1,.46-.22.37.37,0,0,1,.23.46c-.09.24-.18.47-.28.7A.36.36,0,0,1,105.18,32ZM88,31.08a.35.35,0,0,1-.35-.25c-.07-.24-.14-.48-.2-.73a.36.36,0,0,1,.27-.43.37.37,0,0,1,.44.27c.05.23.11.45.18.67a.36.36,0,0,1-.23.46Zm17.94-1.92h0a.36.36,0,0,1-.32-.4c0-.23,0-.46,0-.69a.37.37,0,0,1,.37-.36.36.36,0,0,1,.35.37c0,.25,0,.5,0,.75A.37.37,0,0,1,105.91,29.16Zm-18.38-.93h0a.38.38,0,0,1-.37-.37c0-.25,0-.5,0-.75a.37.37,0,0,1,.39-.33.35.35,0,0,1,.33.39c0,.23,0,.46,0,.7A.36.36,0,0,1,87.53,28.23Zm18.2-1.95a.37.37,0,0,1-.36-.29c-.05-.22-.11-.45-.18-.67a.37.37,0,1,1,.7-.22c.07.24.14.49.19.73a.38.38,0,0,1-.27.44ZM88,25.37h-.11a.36.36,0,0,1-.23-.46c.08-.24.17-.48.27-.71A.36.36,0,0,1,88.4,24a.35.35,0,0,1,.19.47q-.14.33-.24.66A.38.38,0,0,1,88,25.37Zm16.66-1.78a.38.38,0,0,1-.31-.18c-.12-.2-.25-.4-.38-.59a.36.36,0,0,1,.09-.5.35.35,0,0,1,.5.09A6.81,6.81,0,0,1,105,23a.36.36,0,0,1-.12.5A.45.45,0,0,1,104.66,23.59Zm-15.33-.78a.4.4,0,0,1-.21-.07.37.37,0,0,1-.08-.51c.15-.2.31-.4.47-.59a.37.37,0,1,1,.55.48,5.66,5.66,0,0,0-.43.54A.36.36,0,0,1,89.33,22.81Zm13.49-1.45a.36.36,0,0,1-.24-.09l-.54-.44a.36.36,0,1,1,.43-.58l.59.47a.38.38,0,0,1,0,.52A.36.36,0,0,1,102.82,21.36Zm-11.43-.58a.35.35,0,0,1-.29-.15.37.37,0,0,1,.08-.51c.21-.15.42-.28.63-.41a.36.36,0,0,1,.5.12.37.37,0,0,1-.12.5l-.59.38A.31.31,0,0,1,91.39,20.78Zm9-1a.34.34,0,0,1-.14,0,5.12,5.12,0,0,0-.65-.25.37.37,0,0,1-.23-.46.36.36,0,0,1,.46-.23c.24.08.47.17.71.27a.36.36,0,0,1-.15.69ZM94,19.49a.35.35,0,0,1-.34-.25.37.37,0,0,1,.23-.46c.24-.07.49-.14.73-.19a.36.36,0,0,1,.44.27.36.36,0,0,1-.27.43c-.23.05-.46.11-.68.18A.2.2,0,0,1,94,19.49Zm3.59-.38h0l-.7,0a.37.37,0,0,1-.36-.37.35.35,0,0,1,.37-.36l.75,0a.37.37,0,0,1,0,.73Z"
            />
        <path
            d="M18.79,37.49c-.26,0-.51,0-.76,0a.36.36,0,0,1-.33-.39.35.35,0,0,1,.39-.33c.23,0,.46,0,.7,0a.37.37,0,0,1,.36.37A.36.36,0,0,1,18.79,37.49Zm1.95-.21a.36.36,0,0,1-.36-.29.37.37,0,0,1,.28-.43c.23-.05.45-.1.68-.17a.36.36,0,0,1,.45.24.35.35,0,0,1-.25.45,6.38,6.38,0,0,1-.72.19ZM15.93,37l-.11,0-.71-.26a.36.36,0,0,1-.2-.48.37.37,0,0,1,.48-.19c.21.09.43.17.65.24a.36.36,0,0,1,.23.46A.36.36,0,0,1,15.93,37Zm7.5-.81a.36.36,0,0,1-.18-.67l.59-.38a.36.36,0,0,1,.41.6c-.2.14-.42.28-.63.4A.32.32,0,0,1,23.43,36.23Zm-10.08-.51a.35.35,0,0,1-.21-.07l-.59-.47a.36.36,0,0,1,0-.51.35.35,0,0,1,.51,0c.18.15.36.3.55.43a.38.38,0,0,1,.08.51A.36.36,0,0,1,13.35,35.72ZM25.67,34.4a.36.36,0,0,1-.24-.09.37.37,0,0,1,0-.52c.15-.17.3-.35.44-.54a.36.36,0,1,1,.58.44c-.15.2-.31.4-.48.59A.36.36,0,0,1,25.67,34.4Zm-14.35-.73a.4.4,0,0,1-.3-.15c-.14-.21-.28-.42-.41-.63a.36.36,0,0,1,.12-.5.36.36,0,0,1,.5.12c.12.2.25.39.38.58a.37.37,0,0,1-.08.51A.4.4,0,0,1,11.32,33.67ZM27.22,32l-.14,0a.37.37,0,0,1-.19-.48c.09-.21.18-.43.26-.65a.36.36,0,0,1,.68.24c-.08.24-.17.47-.27.7A.36.36,0,0,1,27.22,32ZM10,31.08a.35.35,0,0,1-.34-.25c-.08-.24-.14-.48-.2-.72a.36.36,0,0,1,.27-.44.35.35,0,0,1,.43.27c.06.23.12.45.19.67a.36.36,0,0,1-.24.46ZM28,29.16h0a.37.37,0,0,1-.33-.4c0-.23,0-.46,0-.69a.39.39,0,0,1,.37-.36.37.37,0,0,1,.36.37c0,.25,0,.51-.05.76A.35.35,0,0,1,28,29.16ZM9.57,28.23h0a.37.37,0,0,1-.36-.37,6.28,6.28,0,0,1,0-.75.36.36,0,1,1,.72.06c0,.23,0,.46,0,.7A.37.37,0,0,1,9.57,28.23Zm18.2-1.95a.37.37,0,0,1-.35-.29c-.05-.22-.11-.45-.18-.67a.36.36,0,1,1,.69-.22c.08.24.14.49.2.73a.37.37,0,0,1-.28.44Zm-17.72-.91H9.93a.37.37,0,0,1-.23-.46c.08-.24.17-.48.27-.71a.37.37,0,0,1,.48-.19.36.36,0,0,1,.19.47c-.09.22-.17.43-.25.66A.35.35,0,0,1,10.05,25.37Zm16.66-1.78a.38.38,0,0,1-.32-.18c-.11-.2-.24-.4-.37-.59a.35.35,0,0,1,.08-.5.36.36,0,0,1,.51.09c.14.2.28.41.41.63a.36.36,0,0,1-.13.5A.41.41,0,0,1,26.71,23.59Zm-15.33-.78a.44.44,0,0,1-.22-.07.37.37,0,0,1-.07-.51c.15-.2.3-.4.47-.59a.36.36,0,1,1,.55.47c-.15.18-.3.36-.44.55A.35.35,0,0,1,11.38,22.81Zm13.48-1.45a.38.38,0,0,1-.24-.09c-.17-.15-.35-.3-.54-.44a.36.36,0,0,1,.44-.58c.2.15.39.31.58.47a.38.38,0,0,1,0,.52A.39.39,0,0,1,24.86,21.36Zm-11.42-.58a.37.37,0,0,1-.3-.15.38.38,0,0,1,.09-.51,6.81,6.81,0,0,1,.63-.41.36.36,0,1,1,.37.62c-.2.12-.39.25-.58.38A.33.33,0,0,1,13.44,20.78Zm9-1a.39.39,0,0,1-.15,0,5.12,5.12,0,0,0-.65-.25.37.37,0,0,1,.24-.69c.24.08.47.17.7.27a.36.36,0,0,1-.14.69ZM16,19.49a.37.37,0,0,1-.35-.25.37.37,0,0,1,.24-.46c.24-.07.48-.14.73-.19a.35.35,0,0,1,.43.27.36.36,0,0,1-.27.43c-.23.05-.45.11-.67.18A.23.23,0,0,1,16,19.49Zm3.59-.38h0q-.34,0-.69,0a.37.37,0,0,1-.36-.37.34.34,0,0,1,.36-.36l.76,0a.38.38,0,0,1,.33.4A.37.37,0,0,1,19.62,19.11Z"
            />
        <path
            d="M106,80.4q-.37,0-.75,0a.37.37,0,0,1-.34-.39.37.37,0,0,1,.39-.33c.23,0,.47,0,.7,0a.36.36,0,0,1,0,.72Zm2-.21a.36.36,0,0,1-.07-.72,5.48,5.48,0,0,0,.67-.17.35.35,0,0,1,.45.24.36.36,0,0,1-.24.45,6,6,0,0,1-.73.19ZM103.09,80l-.11,0-.71-.26a.37.37,0,0,1-.19-.48.36.36,0,0,1,.47-.19q.33.14.66.24a.36.36,0,0,1-.12.71Zm7.51-.81a.33.33,0,0,1-.31-.18.35.35,0,0,1,.12-.49c.21-.12.4-.25.59-.38a.37.37,0,0,1,.42.6c-.21.14-.42.28-.64.4A.31.31,0,0,1,110.6,79.14Zm-10.08-.51a.38.38,0,0,1-.22-.07l-.59-.47a.35.35,0,0,1,0-.51.36.36,0,0,1,.51,0,5.66,5.66,0,0,0,.54.43.36.36,0,0,1,.08.51A.35.35,0,0,1,100.52,78.63Zm12.31-1.32a.36.36,0,0,1-.27-.61,5.75,5.75,0,0,0,.44-.54.36.36,0,1,1,.58.44c-.15.2-.31.4-.48.59A.36.36,0,0,1,112.83,77.31Zm-14.35-.73a.38.38,0,0,1-.29-.15q-.22-.32-.42-.63a.36.36,0,1,1,.62-.38c.12.2.25.39.39.58a.38.38,0,0,1-.08.51A.44.44,0,0,1,98.48,76.58Zm15.91-1.71a.4.4,0,0,1-.15,0,.36.36,0,0,1-.18-.48c.09-.21.17-.43.25-.65a.36.36,0,0,1,.46-.22A.37.37,0,0,1,115,74c-.09.24-.18.47-.28.71A.36.36,0,0,1,114.39,74.87ZM97.18,74a.36.36,0,0,1-.35-.25c-.07-.24-.14-.48-.2-.72a.38.38,0,0,1,.27-.44.37.37,0,0,1,.44.27c0,.23.12.45.19.67a.37.37,0,0,1-.24.46Zm17.94-1.92h0a.36.36,0,0,1-.32-.39c0-.24,0-.47,0-.7a.39.39,0,0,1,.37-.36.36.36,0,0,1,.35.37c0,.25,0,.51,0,.76A.37.37,0,0,1,115.12,72.07Zm-18.38-.93h0a.36.36,0,0,1-.36-.37q0-.37,0-.75a.37.37,0,0,1,.39-.33.35.35,0,0,1,.33.39c0,.23,0,.46,0,.7A.36.36,0,0,1,96.74,71.14Zm18.2-2a.37.37,0,0,1-.36-.29c0-.22-.11-.45-.17-.67a.37.37,0,0,1,.24-.46.37.37,0,0,1,.45.25c.07.24.14.48.19.72a.37.37,0,0,1-.27.44Zm-17.73-.91H97.1a.37.37,0,0,1-.23-.46c.08-.24.17-.48.27-.71a.36.36,0,1,1,.66.29c-.09.21-.17.43-.24.65A.37.37,0,0,1,97.21,68.28Zm16.66-1.78a.36.36,0,0,1-.31-.18c-.12-.2-.24-.39-.38-.59a.36.36,0,0,1,.09-.5.36.36,0,0,1,.51.09c.14.2.27.41.4.63a.36.36,0,0,1-.12.5A.41.41,0,0,1,113.87,66.5Zm-15.33-.78a.44.44,0,0,1-.21-.07.37.37,0,0,1-.08-.51c.15-.2.31-.4.48-.59a.36.36,0,0,1,.51,0,.37.37,0,0,1,0,.52,5.66,5.66,0,0,0-.43.54A.36.36,0,0,1,98.54,65.72ZM112,64.27a.36.36,0,0,1-.24-.09l-.54-.44a.36.36,0,1,1,.43-.58c.2.15.4.31.59.48a.36.36,0,0,1,0,.51A.36.36,0,0,1,112,64.27Zm-11.43-.58a.35.35,0,0,1-.29-.15.37.37,0,0,1,.08-.51c.21-.15.42-.28.64-.41a.35.35,0,0,1,.49.12.36.36,0,0,1-.12.5c-.2.12-.4.25-.58.38A.36.36,0,0,1,100.6,63.69Zm9-1a.35.35,0,0,1-.14,0,5.78,5.78,0,0,0-.65-.25.37.37,0,0,1-.23-.46.36.36,0,0,1,.46-.23c.24.08.48.17.71.27a.37.37,0,0,1,.19.48A.39.39,0,0,1,109.58,62.73Zm-6.39-.33a.36.36,0,0,1-.1-.71l.72-.2a.37.37,0,0,1,.44.28.36.36,0,0,1-.27.43,5.27,5.27,0,0,0-.68.19Zm3.59-.38h0a5.48,5.48,0,0,0-.7,0,.37.37,0,0,1,0-.73h0l.75,0a.37.37,0,0,1,0,.73Z"
            />
        <path
            d="M9.57,80.4q-.37,0-.75,0a.36.36,0,0,1,.06-.72q.34,0,.69,0a.36.36,0,1,1,0,.72Zm2-.21a.36.36,0,0,1-.08-.72,5.63,5.63,0,0,0,.68-.17.36.36,0,0,1,.45.24.35.35,0,0,1-.25.45,6,6,0,0,1-.73.19ZM6.72,80l-.11,0-.71-.26a.36.36,0,0,1-.2-.48A.37.37,0,0,1,6.18,79c.21.09.43.17.65.24a.36.36,0,0,1-.11.71Zm7.5-.81a.36.36,0,0,1-.18-.67l.59-.38a.36.36,0,0,1,.41.6c-.21.14-.42.28-.63.4A.32.32,0,0,1,14.22,79.14ZM4.14,78.63a.33.33,0,0,1-.21-.07l-.59-.47a.36.36,0,0,1,0-.51.35.35,0,0,1,.51,0l.55.43a.38.38,0,0,1,.08.51A.37.37,0,0,1,4.14,78.63Zm12.32-1.32a.36.36,0,0,1-.24-.09.38.38,0,0,1,0-.52,5.85,5.85,0,0,0,.45-.54.36.36,0,0,1,.51-.07.37.37,0,0,1,.07.51l-.48.59A.36.36,0,0,1,16.46,77.31ZM2.11,76.58a.38.38,0,0,1-.3-.15c-.14-.21-.28-.42-.41-.63a.36.36,0,0,1,.12-.5.36.36,0,0,1,.5.12c.12.2.25.39.38.58a.37.37,0,0,1-.08.51A.44.44,0,0,1,2.11,76.58ZM18,74.87a.35.35,0,0,1-.14,0,.37.37,0,0,1-.19-.48c.09-.21.18-.43.25-.65a.37.37,0,0,1,.47-.22.36.36,0,0,1,.22.46c-.08.24-.17.47-.27.7A.37.37,0,0,1,18,74.87ZM.8,74a.35.35,0,0,1-.34-.25A6.44,6.44,0,0,1,.26,73a.36.36,0,0,1,.27-.44.35.35,0,0,1,.43.27c.06.23.12.45.19.67A.37.37,0,0,1,.91,74Zm17.94-1.92h0a.37.37,0,0,1-.33-.39c0-.24,0-.47,0-.7a.37.37,0,1,1,.73,0c0,.25,0,.51,0,.76A.36.36,0,0,1,18.74,72.07ZM.36,71.14h0A.37.37,0,0,1,0,70.77Q0,70.4,0,70a.37.37,0,0,1,.4-.33.36.36,0,0,1,.33.39c0,.23,0,.46,0,.7A.37.37,0,0,1,.36,71.14Zm18.2-2a.37.37,0,0,1-.35-.29c-.05-.22-.11-.45-.18-.67a.37.37,0,0,1,.24-.46.37.37,0,0,1,.45.25c.08.24.14.48.2.72a.37.37,0,0,1-.28.44ZM.84,68.28H.72a.37.37,0,0,1-.23-.46c.08-.24.17-.48.27-.71a.36.36,0,0,1,.67.28c-.09.22-.18.43-.25.66A.35.35,0,0,1,.84,68.28ZM17.5,66.5a.38.38,0,0,1-.32-.18,6.51,6.51,0,0,0-.38-.59.36.36,0,0,1,.09-.5.36.36,0,0,1,.51.09c.14.2.28.41.41.63a.37.37,0,0,1-.13.5A.41.41,0,0,1,17.5,66.5ZM2.17,65.72A.44.44,0,0,1,2,65.65a.37.37,0,0,1-.07-.51c.15-.2.3-.4.47-.59a.36.36,0,0,1,.51,0,.37.37,0,0,1,0,.52c-.15.17-.3.35-.44.54A.35.35,0,0,1,2.17,65.72Zm13.48-1.45a.38.38,0,0,1-.24-.09c-.17-.15-.35-.3-.54-.44a.36.36,0,0,1,.44-.58c.2.15.39.31.58.48a.36.36,0,0,1-.24.63ZM4.23,63.69A.36.36,0,0,1,4,63c.2-.14.41-.28.63-.41a.36.36,0,1,1,.37.62c-.2.12-.39.25-.58.38A.33.33,0,0,1,4.23,63.69Zm9-1-.15,0a5.12,5.12,0,0,0-.65-.25.36.36,0,0,1-.22-.46.37.37,0,0,1,.46-.23c.23.08.47.17.7.27a.36.36,0,0,1,.19.48A.37.37,0,0,1,13.21,62.73ZM6.82,62.4a.37.37,0,0,1-.35-.25.37.37,0,0,1,.24-.46l.73-.2a.36.36,0,0,1,.43.28.35.35,0,0,1-.27.43,5.12,5.12,0,0,0-.67.19ZM10.4,62h0a5.37,5.37,0,0,0-.7,0,.35.35,0,0,1-.35-.37.34.34,0,0,1,.36-.36l.76,0a.37.37,0,0,1,0,.73Z"
            />
        <path
            d="M79.08,115c-.23,0-.47,0-.7,0a.37.37,0,0,1-.32-.39.35.35,0,0,1,.37-.33l.65,0a.36.36,0,0,1,0,.72Zm1.84-.21a.34.34,0,0,1-.33-.28.37.37,0,0,1,.26-.44c.21,0,.42-.1.63-.17a.34.34,0,0,1,.43.24.37.37,0,0,1-.23.45,5.91,5.91,0,0,1-.69.19Zm-4.52-.24-.11,0-.66-.26a.38.38,0,0,1-.19-.48.34.34,0,0,1,.45-.19,6.62,6.62,0,0,0,.62.24.37.37,0,0,1,.21.46A.34.34,0,0,1,76.4,114.54Zm7-.81a.33.33,0,0,1-.29-.18.37.37,0,0,1,.12-.49c.19-.12.38-.25.55-.38a.34.34,0,0,1,.48.09.38.38,0,0,1-.09.51c-.19.14-.39.27-.59.4A.31.31,0,0,1,83.45,113.73ZM74,113.22a.31.31,0,0,1-.2-.07l-.56-.47a.37.37,0,0,1,0-.51.33.33,0,0,1,.48,0c.16.15.33.29.51.43a.39.39,0,0,1,.07.51A.32.32,0,0,1,74,113.22Zm11.57-1.32a.31.31,0,0,1-.22-.09.39.39,0,0,1,0-.52c.14-.17.28-.35.41-.54a.33.33,0,0,1,.48-.07.39.39,0,0,1,.07.51c-.14.2-.29.4-.45.59A.34.34,0,0,1,85.55,111.9Zm-13.49-.73a.34.34,0,0,1-.27-.15q-.21-.31-.39-.63a.37.37,0,0,1,.11-.5A.33.33,0,0,1,72,110c.11.2.23.39.36.58a.39.39,0,0,1-.08.51A.37.37,0,0,1,72.06,111.17Zm15-1.71a.32.32,0,0,1-.14,0,.38.38,0,0,1-.18-.48c.09-.21.17-.43.24-.65a.34.34,0,0,1,.44-.22.36.36,0,0,1,.21.46c-.08.24-.17.47-.26.7A.34.34,0,0,1,87,109.46Zm-16.18-.88a.34.34,0,0,1-.33-.25c-.07-.24-.13-.48-.19-.72a.36.36,0,0,1,.26-.44.34.34,0,0,1,.41.27c.05.23.11.45.17.67a.37.37,0,0,1-.22.46Zm16.86-1.92h0a.36.36,0,0,1-.31-.4c0-.23,0-.46,0-.69a.36.36,0,0,1,.35-.36.35.35,0,0,1,.33.37c0,.25,0,.5,0,.75A.34.34,0,0,1,87.7,106.66Zm-17.28-.93h0a.36.36,0,0,1-.34-.37c0-.25,0-.5,0-.75a.33.33,0,0,1,.36-.33.35.35,0,0,1,.31.39c0,.23,0,.46,0,.7A.36.36,0,0,1,70.42,105.73Zm17.11-2a.35.35,0,0,1-.33-.28c0-.22-.1-.45-.17-.67a.38.38,0,0,1,.23-.46.35.35,0,0,1,.43.24c.06.24.13.49.18.73a.38.38,0,0,1-.26.44Zm-16.66-.9a.22.22,0,0,1-.11,0,.36.36,0,0,1-.21-.46,6.52,6.52,0,0,1,.25-.7.32.32,0,0,1,.44-.19.36.36,0,0,1,.18.47c-.08.22-.16.43-.23.66A.33.33,0,0,1,70.87,102.87Zm15.66-1.78a.33.33,0,0,1-.29-.18c-.11-.2-.23-.4-.36-.59a.37.37,0,0,1,.08-.5.33.33,0,0,1,.48.09,6.58,6.58,0,0,1,.38.63.38.38,0,0,1-.11.5A.41.41,0,0,1,86.53,101.09Zm-14.41-.78a.37.37,0,0,1-.2-.07.39.39,0,0,1-.07-.51c.14-.2.29-.4.44-.59a.33.33,0,0,1,.48,0,.38.38,0,0,1,0,.51c-.15.18-.28.36-.41.55A.33.33,0,0,1,72.12,100.31ZM84.8,98.86a.35.35,0,0,1-.23-.09c-.16-.15-.33-.3-.51-.44a.39.39,0,0,1-.07-.51.33.33,0,0,1,.48-.07c.19.15.38.31.55.47a.38.38,0,0,1,0,.52A.32.32,0,0,1,84.8,98.86Zm-10.74-.58a.36.36,0,0,1-.28-.15.39.39,0,0,1,.08-.51c.19-.15.39-.28.59-.41a.33.33,0,0,1,.47.12.37.37,0,0,1-.12.5c-.18.12-.37.25-.54.38A.31.31,0,0,1,74.06,98.28Zm8.44-1a.34.34,0,0,1-.14,0,4.6,4.6,0,0,0-.61-.25.37.37,0,0,1-.21-.46.33.33,0,0,1,.43-.23,6.5,6.5,0,0,1,.66.27.36.36,0,0,1,.18.48A.34.34,0,0,1,82.5,97.31Zm-6-.32a.34.34,0,0,1-.32-.25.37.37,0,0,1,.22-.46l.68-.2a.34.34,0,0,1,.41.28.35.35,0,0,1-.25.43c-.21,0-.43.11-.64.18A.16.16,0,0,1,76.49,97Zm3.38-.38h0c-.21,0-.43,0-.65,0a.37.37,0,0,1,0-.73h0l.7,0a.36.36,0,0,1,.31.4A.35.35,0,0,1,79.87,96.61Z"
            />
        <path
            d="M36.32,115q-.37,0-.75,0a.36.36,0,1,1,.06-.72q.34,0,.69,0a.36.36,0,0,1,0,.72Zm2-.21a.36.36,0,0,1-.07-.72c.22,0,.45-.1.67-.17a.36.36,0,1,1,.21.69,6,6,0,0,1-.73.19Zm-4.81-.24-.11,0-.7-.26a.36.36,0,0,1-.2-.48.36.36,0,0,1,.47-.19q.33.14.66.24a.36.36,0,0,1,.23.46A.37.37,0,0,1,33.46,114.54Zm7.51-.81a.33.33,0,0,1-.31-.18.35.35,0,0,1,.13-.49c.2-.12.39-.25.58-.38a.37.37,0,0,1,.42.6l-.64.4A.29.29,0,0,1,41,113.73Zm-10.08-.51a.33.33,0,0,1-.21-.07c-.21-.15-.4-.31-.59-.47a.35.35,0,0,1,0-.51.36.36,0,0,1,.51,0l.54.43a.36.36,0,0,1,.08.51A.35.35,0,0,1,30.89,113.22ZM43.2,111.9a.36.36,0,0,1-.27-.61,5.75,5.75,0,0,0,.44-.54.36.36,0,0,1,.58.44c-.15.2-.31.4-.47.59A.39.39,0,0,1,43.2,111.9Zm-14.35-.73a.38.38,0,0,1-.29-.15q-.22-.31-.42-.63a.36.36,0,0,1,.13-.5.35.35,0,0,1,.49.12c.12.2.25.39.39.58a.37.37,0,0,1-.08.51A.44.44,0,0,1,28.85,111.17Zm15.91-1.71a.32.32,0,0,1-.14,0,.36.36,0,0,1-.19-.48c.09-.21.18-.43.25-.65a.36.36,0,0,1,.46-.22.37.37,0,0,1,.23.46c-.08.24-.18.47-.28.7A.35.35,0,0,1,44.76,109.46Zm-17.21-.88a.34.34,0,0,1-.34-.25q-.12-.36-.21-.72a.37.37,0,0,1,.27-.44.36.36,0,0,1,.44.27c.05.23.12.45.19.67a.37.37,0,0,1-.24.46Zm17.94-1.92h0a.36.36,0,0,1-.32-.39c0-.24,0-.47,0-.7a.38.38,0,0,1,.37-.36.36.36,0,0,1,.35.37,6.28,6.28,0,0,1,0,.75A.37.37,0,0,1,45.49,106.66Zm-18.38-.93h0a.37.37,0,0,1-.36-.37q0-.37,0-.75a.36.36,0,0,1,.39-.33.35.35,0,0,1,.33.39c0,.23,0,.46,0,.7A.36.36,0,0,1,27.11,105.73Zm18.2-2a.35.35,0,0,1-.35-.28c-.05-.22-.11-.45-.18-.67a.36.36,0,0,1,.69-.22c.07.24.14.49.19.73a.37.37,0,0,1-.27.44Zm-17.73-.9a.23.23,0,0,1-.11,0,.36.36,0,0,1-.23-.46c.08-.23.17-.47.27-.7a.36.36,0,1,1,.66.28c-.09.22-.17.43-.24.66A.36.36,0,0,1,27.58,102.87Zm16.66-1.78a.38.38,0,0,1-.31-.18c-.12-.2-.24-.39-.38-.59a.36.36,0,0,1,.09-.5.36.36,0,0,1,.51.09c.14.2.28.41.41.63a.37.37,0,0,1-.13.5A.41.41,0,0,1,44.24,101.09Zm-15.32-.78a.44.44,0,0,1-.22-.07.38.38,0,0,1-.08-.51c.15-.2.31-.4.47-.59a.38.38,0,0,1,.52,0,.35.35,0,0,1,0,.51c-.15.18-.29.36-.43.55A.35.35,0,0,1,28.92,100.31ZM42.4,98.86a.36.36,0,0,1-.24-.09c-.17-.15-.36-.3-.54-.44a.37.37,0,0,1-.07-.51.35.35,0,0,1,.5-.07l.59.47a.38.38,0,0,1,0,.52A.36.36,0,0,1,42.4,98.86ZM31,98.28a.38.38,0,0,1-.3-.15.37.37,0,0,1,.08-.51c.21-.15.42-.28.64-.41a.35.35,0,0,1,.49.12.36.36,0,0,1-.12.5c-.2.12-.39.25-.58.38A.35.35,0,0,1,31,98.28Zm9-1-.14,0a5.12,5.12,0,0,0-.65-.25.36.36,0,1,1,.23-.69c.24.08.48.17.71.27a.37.37,0,0,1,.19.48A.39.39,0,0,1,40,97.32ZM33.57,97a.37.37,0,0,1-.35-.25.37.37,0,0,1,.24-.46l.72-.2a.37.37,0,0,1,.44.28.36.36,0,0,1-.27.43c-.23,0-.45.11-.68.18Zm3.58-.38h0c-.23,0-.47,0-.7,0a.37.37,0,0,1-.36-.37.37.37,0,0,1,.37-.36h0l.75,0a.37.37,0,0,1,0,.73Z"
             />
    </g>
</svg>