<svg id="dashed-circle-1" xmlns="http://www.w3.org/2000/svg"
    viewBox="0 0 18 19.15">
    <path
        d="M682.59,393.1l-.71,0a.37.37,0,0,1-.31-.4.35.35,0,0,1,.37-.33c.22,0,.43,0,.65,0a.35.35,0,0,1,.34.36A.36.36,0,0,1,682.59,393.1Zm1.84-.21a.34.34,0,0,1-.33-.29.35.35,0,0,1,.26-.43L685,392a.36.36,0,0,1,.43.25.37.37,0,0,1-.23.45l-.69.19Zm-4.52-.25a.22.22,0,0,1-.11,0,6,6,0,0,1-.66-.26.36.36,0,0,1-.19-.47.34.34,0,0,1,.45-.2c.2.09.41.17.61.24a.37.37,0,0,1,.22.46A.33.33,0,0,1,679.91,392.64Zm7.05-.8a.35.35,0,0,1-.29-.18.38.38,0,0,1,.12-.5l.55-.37a.33.33,0,0,1,.48.09.36.36,0,0,1-.09.5c-.19.14-.39.28-.6.41A.34.34,0,0,1,687,391.84Zm-9.47-.52a.31.31,0,0,1-.2-.07,6.33,6.33,0,0,1-.56-.47.38.38,0,0,1,0-.51.34.34,0,0,1,.49,0,5.37,5.37,0,0,0,.51.44.37.37,0,0,1,.07.5A.33.33,0,0,1,677.49,391.32ZM689.06,390a.31.31,0,0,1-.22-.09.36.36,0,0,1,0-.51l.41-.54a.33.33,0,0,1,.48-.07.39.39,0,0,1,.07.51c-.15.2-.29.39-.45.58A.34.34,0,0,1,689.06,390Zm-13.49-.73a.32.32,0,0,1-.27-.15c-.14-.2-.27-.41-.4-.63a.39.39,0,0,1,.12-.5.33.33,0,0,1,.47.13c.11.19.23.39.36.58a.37.37,0,0,1-.08.5A.31.31,0,0,1,675.57,389.27Zm15-1.7a.32.32,0,0,1-.14,0,.39.39,0,0,1-.18-.48c.09-.22.17-.43.24-.65a.35.35,0,0,1,.44-.23.38.38,0,0,1,.21.47c-.08.23-.17.47-.26.7A.36.36,0,0,1,690.53,387.57Zm-16.18-.88a.35.35,0,0,1-.33-.25c-.07-.24-.13-.48-.19-.73a.37.37,0,0,1,.26-.44.35.35,0,0,1,.41.27c0,.23.11.46.17.68a.36.36,0,0,1-.22.45Zm16.86-1.92h0a.36.36,0,0,1-.31-.4c0-.23,0-.46,0-.7a.35.35,0,0,1,.35-.35.35.35,0,0,1,.33.37c0,.25,0,.5,0,.75A.35.35,0,0,1,691.21,384.77Zm-17.28-.94h0a.35.35,0,0,1-.34-.36c0-.26,0-.51,0-.76a.34.34,0,1,1,.68.07c0,.22,0,.46,0,.69A.36.36,0,0,1,673.93,383.83ZM691,381.88a.35.35,0,0,1-.33-.28c-.05-.23-.1-.45-.17-.68a.37.37,0,0,1,.23-.45.33.33,0,0,1,.42.24c.07.24.13.48.19.73a.37.37,0,0,1-.26.43Zm-16.66-.9-.11,0a.36.36,0,0,1-.21-.46,5.83,5.83,0,0,1,.25-.7.32.32,0,0,1,.44-.2.36.36,0,0,1,.18.48c-.08.21-.16.43-.23.65A.35.35,0,0,1,674.38,381ZM690,379.19a.32.32,0,0,1-.29-.17c-.12-.2-.23-.4-.36-.59a.39.39,0,0,1,.08-.51.34.34,0,0,1,.48.09c.13.21.26.42.38.63a.37.37,0,0,1-.11.5A.31.31,0,0,1,690,379.19Zm-14.41-.78a.31.31,0,0,1-.2-.07.37.37,0,0,1-.07-.51c.14-.2.28-.39.44-.58a.32.32,0,0,1,.48,0,.38.38,0,0,1,0,.51c-.15.17-.28.36-.41.54A.33.33,0,0,1,675.63,378.41ZM688.31,377a.31.31,0,0,1-.23-.09c-.16-.15-.33-.29-.51-.43a.39.39,0,0,1-.07-.51.33.33,0,0,1,.48-.08c.19.16.38.31.55.48a.37.37,0,0,1,0,.51A.32.32,0,0,1,688.31,377Zm-10.74-.58a.33.33,0,0,1-.28-.15.39.39,0,0,1,.08-.51l.59-.41a.33.33,0,0,1,.47.13.36.36,0,0,1-.12.49,5.3,5.3,0,0,0-.54.39A.36.36,0,0,1,677.57,376.38Zm8.44-1a.35.35,0,0,1-.14,0l-.61-.25a.36.36,0,0,1-.21-.46.34.34,0,0,1,.43-.23l.66.27a.37.37,0,0,1,.18.48A.33.33,0,0,1,686,375.42Zm-6-.32a.34.34,0,0,1-.32-.26.36.36,0,0,1,.22-.45c.23-.08.45-.14.68-.2a.34.34,0,0,1,.41.27.37.37,0,0,1-.25.44c-.22.05-.43.11-.64.18Zm3.37-.39h0l-.65,0a.35.35,0,0,1-.34-.36.35.35,0,0,1,.34-.36h0a5.48,5.48,0,0,1,.7,0,.35.35,0,0,1,.31.39A.34.34,0,0,1,683.37,374.71Z"
        transform="translate(-673.59 -373.95)" />
</svg>