<svg id="dashed-circle-1" xmlns="http://www.w3.org/2000/svg" viewBox="0 0 52.06 52.02">
    <g>
        <path
            d="M27.15,52a.37.37,0,0,1-.36-.35.36.36,0,0,1,.34-.38,25.47,25.47,0,0,0,4.26-.55.37.37,0,0,1,.43.28.36.36,0,0,1-.28.43,26.81,26.81,0,0,1-4.37.57Zm-4.35-.18h0a26.6,26.6,0,0,1-4.32-.93.36.36,0,1,1,.21-.69,26.17,26.17,0,0,0,4.2.9.35.35,0,0,1,.31.4A.37.37,0,0,1,22.8,51.84Zm12.82-1.66a.35.35,0,0,1-.33-.22.36.36,0,0,1,.2-.48,25.36,25.36,0,0,0,3.19-1.55l.64-.38a.36.36,0,0,1,.5.12.37.37,0,0,1-.12.5l-.65.38a27.05,27.05,0,0,1-3.29,1.61Zm-21.11-.87a.29.29,0,0,1-.16,0c-.45-.22-.9-.46-1.33-.72A26.06,26.06,0,0,1,10.58,47a.37.37,0,0,1,.44-.59,23.4,23.4,0,0,0,2.36,1.55c.42.24.86.47,1.29.69a.36.36,0,0,1,.16.49A.35.35,0,0,1,14.51,49.31ZM43,45.63a.36.36,0,0,1-.27-.12.36.36,0,0,1,0-.51,25.49,25.49,0,0,0,3-3.1.38.38,0,0,1,.52-.06.36.36,0,0,1,0,.51,25.56,25.56,0,0,1-3,3.19A.38.38,0,0,1,43,45.63ZM7.53,44.17a.36.36,0,0,1-.26-.11,26.89,26.89,0,0,1-2.78-3.43.37.37,0,0,1,.1-.51.36.36,0,0,1,.5.1,25.36,25.36,0,0,0,2.7,3.33.37.37,0,0,1,0,.52A.39.39,0,0,1,7.53,44.17Zm40.91-5.29a.39.39,0,0,1-.18,0,.37.37,0,0,1-.14-.49,24.94,24.94,0,0,0,1.77-3.91.37.37,0,0,1,.46-.23.38.38,0,0,1,.23.47,26.91,26.91,0,0,1-1.82,4A.36.36,0,0,1,48.44,38.88ZM2.66,37a.36.36,0,0,1-.33-.21A26.73,26.73,0,0,1,.85,32.62a.37.37,0,0,1,.26-.44.38.38,0,0,1,.45.26,25.19,25.19,0,0,0,1.43,4,.35.35,0,0,1-.18.48Zm48.67-6.28h-.06a.36.36,0,0,1-.3-.41A25.58,25.58,0,0,0,51.33,26a.19.19,0,0,0,0-.12A24.47,24.47,0,0,0,51,21.62a.36.36,0,1,1,.72-.12,26.83,26.83,0,0,1,.39,4.39V26a26,26,0,0,1-.37,4.4A.36.36,0,0,1,51.33,30.71ZM.46,28.61a.36.36,0,0,1-.36-.33C0,27.53,0,26.76,0,26s0-1.43.09-2.14a.37.37,0,0,1,.39-.34.37.37,0,0,1,.33.4C.75,24.62.72,25.32.72,26s0,1.47.1,2.21a.36.36,0,0,1-.33.39ZM1.17,20H1.08a.37.37,0,0,1-.26-.45,26.65,26.65,0,0,1,1.46-4.16.37.37,0,0,1,.48-.18.36.36,0,0,1,.18.48,24.88,24.88,0,0,0-1.41,4A.37.37,0,0,1,1.17,20Zm49-2.25a.37.37,0,0,1-.34-.24,25,25,0,0,0-1.78-3.9.36.36,0,0,1,.14-.5.37.37,0,0,1,.49.14,26.9,26.9,0,0,1,1.84,4,.38.38,0,0,1-.22.47ZM4.72,12.06a.39.39,0,0,1-.2-.06.38.38,0,0,1-.1-.51A26.83,26.83,0,0,1,7.18,8.05a.37.37,0,0,1,.53.51A24.66,24.66,0,0,0,5,11.9.38.38,0,0,1,4.72,12.06Zm41.22-1.89a.38.38,0,0,1-.29-.14,25.49,25.49,0,0,0-3-3.08.37.37,0,0,1,.48-.55,26.35,26.35,0,0,1,3.07,3.18.37.37,0,0,1-.06.51A.35.35,0,0,1,45.94,10.17ZM10.7,5.79a.38.38,0,0,1-.29-.15.37.37,0,0,1,.08-.51A24.9,24.9,0,0,1,13,3.47c.41-.23.82-.46,1.23-.66a.36.36,0,0,1,.48.15.37.37,0,0,1-.15.49c-.41.21-.8.42-1.19.65a25.38,25.38,0,0,0-2.46,1.61A.37.37,0,0,1,10.7,5.79ZM39.4,4.47a.35.35,0,0,1-.19-.06l-.53-.31a25.72,25.72,0,0,0-3.3-1.6.36.36,0,1,1,.26-.68,26.78,26.78,0,0,1,3.41,1.65l.54.32a.36.36,0,0,1,.12.5A.35.35,0,0,1,39.4,4.47Zm-21-2.61a.35.35,0,0,1-.34-.26.35.35,0,0,1,.24-.45A25.31,25.31,0,0,1,22.64.2a.36.36,0,0,1,.4.32.35.35,0,0,1-.31.4,25.87,25.87,0,0,0-4.19.92Zm12.92-.6h-.08A24.44,24.44,0,0,0,27,.73a.36.36,0,0,1-.34-.38A.35.35,0,0,1,27,0a25.85,25.85,0,0,1,4.38.55.36.36,0,0,1-.07.71Z" />
    </g>
</svg>