<svg height="100%" id="above-star" xmlns="http://www.w3.org/2000/svg" viewBox="0 0 439.6 426.17">
<path d="M281.2,296.68,546.42,629.26a3.64,3.64,0,0,0,6.4-3.08L458.13,211.31a3.64,3.64,0,0,0-7.1,0L354.82,626.17a3.65,3.65,0,0,0,6.4,3.1L628,296.65a3.65,3.65,0,0,0-4.42-5.57l-386.09,185A3.64,3.64,0,0,0,239,483h428.3a3.65,3.65,0,0,0,1.58-6.93L285.63,291.12A3.65,3.65,0,0,0,281.2,296.68Z" transform="translate(-233.39 -206.48)" 
class="star-path" style="fill:none; stroke: #f7931e; stroke-miterlimit:10;stroke-width:4px"/></svg>